HIERARCHY
ROOT hip
{
  OFFSET 0 0 0
  CHANNELS 6 Xposition Yposition Zposition Zrotation Yrotation Xrotation
  JOINT abdomen
  {
    OFFSET 0 20.6881 -0.73152
    CHANNELS 3 Zrotation Xrotation Yrotation
    JOINT chest
    {
      OFFSET 0 11.7043 -0.48768
      CHANNELS 3 Zrotation Xrotation Yrotation
      JOINT neck
      {
        OFFSET 0 22.1894 -2.19456
        CHANNELS 3 Zrotation Xrotation Yrotation
        JOINT head
        {
          OFFSET -0.24384 7.07133 1.2192
          CHANNELS 3 Zrotation Xrotation Yrotation
          JOINT leftEye
          {
            OFFSET 4.14528 8.04674 8.04672
            CHANNELS 3 Zrotation Xrotation Yrotation
            End Site
            {
              OFFSET 1 0 0
            }
          }
          JOINT rightEye
          {
            OFFSET -3.6576 8.04674 8.04672
            CHANNELS 3 Zrotation Xrotation Yrotation
            End Site
            {
              OFFSET 1 0 0
            }
          }
        }
      }
      JOINT rCollar
      {
        OFFSET -2.68224 19.2634 -4.8768
        CHANNELS 3 Zrotation Xrotation Yrotation
        JOINT rShldr
        {
          OFFSET -8.77824 -1.95073 1.46304
          CHANNELS 3 Zrotation Xrotation Yrotation
          JOINT rForeArm
          {
            OFFSET -28.1742 -1.7115 0.48768
            CHANNELS 3 Zrotation Xrotation Yrotation
            JOINT rHand
            {
              OFFSET -22.5879 0.773209 7.07136
              CHANNELS 3 Zrotation Xrotation Yrotation
              JOINT rThumb1
              {
                OFFSET -1.2192 -0.487915 3.41376
                CHANNELS 3 Zrotation Xrotation Yrotation
                JOINT rThumb2
                {
                  OFFSET -3.37035 -0.52449 3.41376
                  CHANNELS 3 Zrotation Xrotation Yrotation
                  End Site
                  {
                    OFFSET -1.78271 -1.18214 1.43049
                  }
                }
              }
              JOINT rIndex1
              {
                OFFSET -7.75947 0.938293 5.60832
                CHANNELS 3 Zrotation Xrotation Yrotation
                JOINT rIndex2
                {
                  OFFSET -2.54057 -0.884171 1.56538
                  CHANNELS 3 Zrotation Xrotation Yrotation
                  End Site
                  {
                    OFFSET -1.62519 -0.234802 1.16502
                  }
                }
              }
              JOINT rMid1
              {
                OFFSET -8.24714 1.18213 3.41376
                CHANNELS 3 Zrotation Xrotation Yrotation
                JOINT rMid2
                {
                  OFFSET -3.10165 -0.590103 1.0647
                  CHANNELS 3 Zrotation Xrotation Yrotation
                  End Site
                  {
                    OFFSET -2.48547 -0.328903 0.83742
                  }
                }
              }
              JOINT rRing1
              {
                OFFSET -8.82822 0.546677 1.51678
                CHANNELS 3 Zrotation Xrotation Yrotation
                JOINT rRing2
                {
                  OFFSET -2.60934 -0.819778 -0.0198488
                  CHANNELS 3 Zrotation Xrotation Yrotation
                  End Site
                  {
                    OFFSET -2.33842 -0.294052 0.168128
                  }
                }
              }
              JOINT rPinky1
              {
                OFFSET -8.27202 -0.0477905 -0.4584
                CHANNELS 3 Zrotation Xrotation Yrotation
                JOINT rPinky2
                {
                  OFFSET -1.82734 -0.647385 -0.700984
                  CHANNELS 3 Zrotation Xrotation Yrotation
                  End Site
                  {
                    OFFSET -1.69225 -0.51767 -0.607171
                  }
                }
              }
            }
          }
        }
      }
      JOINT lCollar
      {
        OFFSET 2.68224 19.2634 -4.8768
        CHANNELS 3 Zrotation Xrotation Yrotation
        JOINT lShldr
        {
          OFFSET 8.77824 -1.95073 1.46304
          CHANNELS 3 Zrotation Xrotation Yrotation
          JOINT lForeArm
          {
            OFFSET 28.1742 -1.7115 0.48768
            CHANNELS 3 Zrotation Xrotation Yrotation
            JOINT lHand
            {
              OFFSET 22.5879 0.773209 7.07136
              CHANNELS 3 Zrotation Xrotation Yrotation
              JOINT lThumb1
              {
                OFFSET 1.2192 -0.487915 3.41376
                CHANNELS 3 Zrotation Xrotation Yrotation
                JOINT lThumb2
                {
                  OFFSET 3.37035 -0.52449 3.41376
                  CHANNELS 3 Zrotation Xrotation Yrotation
                  End Site
                  {
                    OFFSET 1.78271 -1.18214 1.43049
                  }
                }
              }
              JOINT lIndex1
              {
                OFFSET 7.75947 0.938293 5.60832
                CHANNELS 3 Zrotation Xrotation Yrotation
                JOINT lIndex2
                {
                  OFFSET 2.54057 -0.884171 1.56538
                  CHANNELS 3 Zrotation Xrotation Yrotation
                  End Site
                  {
                    OFFSET 1.62519 -0.234802 1.16502
                  }
                }
              }
              JOINT lMid1
              {
                OFFSET 8.24714 1.18213 3.41376
                CHANNELS 3 Zrotation Xrotation Yrotation
                JOINT lMid2
                {
                  OFFSET 3.10165 -0.590103 1.0647
                  CHANNELS 3 Zrotation Xrotation Yrotation
                  End Site
                  {
                    OFFSET 2.48547 -0.328903 0.83742
                  }
                }
              }
              JOINT lRing1
              {
                OFFSET 8.82822 0.546677 1.51678
                CHANNELS 3 Zrotation Xrotation Yrotation
                JOINT lRing2
                {
                  OFFSET 2.60934 -0.819778 -0.0198488
                  CHANNELS 3 Zrotation Xrotation Yrotation
                  End Site
                  {
                    OFFSET 2.33842 -0.294052 0.168128
                  }
                }
              }
              JOINT lPinky1
              {
                OFFSET 8.27202 -0.0477905 -0.4584
                CHANNELS 3 Zrotation Xrotation Yrotation
                JOINT lPinky2
                {
                  OFFSET 1.82734 -0.647385 -0.700984
                  CHANNELS 3 Zrotation Xrotation Yrotation
                  End Site
                  {
                    OFFSET 1.69225 -0.51767 -0.607171
                  }
                }
              }
            }
          }
        }
      }
    }
  }
  JOINT rButtock
  {
    OFFSET -8.77824 4.35084 1.2192
    CHANNELS 3 Zrotation Xrotation Yrotation
    JOINT rThigh
    {
      OFFSET 0 -1.70687 -2.19456
      CHANNELS 3 Zrotation Xrotation Yrotation
      JOINT rShin
      {
        OFFSET 0 -36.8199 0.73152
        CHANNELS 3 Zrotation Xrotation Yrotation
        JOINT rFoot
        {
          OFFSET 0.73152 -45.1104 -5.12064
          CHANNELS 3 Zrotation Xrotation Yrotation
          End Site
          {
            OFFSET -1.1221 -3.69964 12.103
          }
        }
      }
    }
  }
  JOINT lButtock
  {
    OFFSET 8.77824 4.35084 1.2192
    CHANNELS 3 Zrotation Xrotation Yrotation
    JOINT lThigh
    {
      OFFSET 0 -1.70687 -2.19456
      CHANNELS 3 Zrotation Xrotation Yrotation
      JOINT lShin
      {
        OFFSET 0 -36.8199 0.73152
        CHANNELS 3 Zrotation Xrotation Yrotation
        JOINT lFoot
        {
          OFFSET -0.73152 -45.1104 -5.12064
          CHANNELS 3 Zrotation Xrotation Yrotation
          End Site
          {
            OFFSET 1.1221 -3.69964 12.103
          }
        }
      }
    }
  }
}
MOTION
Frames:	4
Frame Time:	0.03333
-0.12775517534464598 61.922234296798706 0.22421712055802345 -3.608539342880249 3.8006227016448975 5.510939598083496 -2.3595261573791504 14.656546592712402 3.73172664642334 2.787520408630371 -9.615033149719238 1.1073251962661743 -5.153422832489014 14.992688179016113 -3.7811648845672607 8.937919616699219 -23.706640243530273 -5.329315662384033 -0.005079132504761219 0.05413097143173218 -0.0317586213350296 0.03287073224782944 -0.08567304909229279 -0.024104032665491104 -0.010797443799674511 -0.059806399047374725 -0.018930012360215187 43.564674377441406 36.526981353759766 17.95391082763672 -27.556259155273438 -28.624860763549805 65.42039489746094 -0.14014555513858795 -11.243810653686523 -1.7680822610855103 -0.025729091838002205 0.046828728169202805 -0.040381837636232376 -0.004450105596333742 0.004197642207145691 -0.05179252102971077 0.00604685815051198 0.09351158142089844 0.05243651941418648 7.77302885055542 5.513242244720459 0.42314696311950684 -0.011280599981546402 0.015907488763332367 0.020815473049879074 2.9370291233062744 0.974029541015625 0.11961638927459717 -0.04407317563891411 0.007011024747043848 0.006949426140636206 10.26549243927002 0.766652524471283 0.02219998836517334 -0.027003875002264977 -0.08222627639770508 -0.04495036602020264 2.233363151550293 -0.7089496850967407 -0.23383626341819763 0.030126135796308517 0.06608308106660843 0.002611842704936862 -50.36552810668945 38.1827278137207 -28.021461486816406 26.88325309753418 -26.42131996154785 -62.00734329223633 0.23975993692874908 -14.407994270324707 1.9162132740020752 0.056808069348335266 0.005232845898717642 0.05782829970121384 0.021207083016633987 -0.0028874133713543415 0.003724748268723488 -0.039010096341371536 -0.029895896092057228 0.039655450731515884 -7.7772064208984375 5.44716215133667 -0.40624600648880005 0.017450563609600067 -0.0024044145829975605 0.04396799951791763 -2.9312584400177 0.9929261207580566 -0.04183032363653183 0.04794251173734665 0.012365685775876045 0.019029924646019936 -10.259245872497559 0.7462403178215027 -0.03459978103637695 0.05430912971496582 -0.03203711286187172 -0.03243621811270714 -2.246004343032837 -0.7937660217285156 0.22073112428188324 -0.02855987660586834 -0.036213599145412445 -0.025094494223594666 -24.778968811035156 -40.418724060058594 -20.645959854125977 -1.4155784845352173 65.40245819091797 2.552717924118042 -3.6736295223236084 -10.841376304626465 -9.67891788482666 -0.0046633570455014706 0.028354348614811897 -0.049633562564849854 29.945798873901367 -40.29468536376953 22.901029586791992 1.5230436325073242 66.05067443847656 -2.6405014991760254 4.229075908660889 -10.97041130065918 13.366661071777344
-0.22331047803163528 62.68913745880127 0.27225324884057045 -3.5197770595550537 3.654968500137329 5.720970630645752 -2.325472831726074 14.454012870788574 3.7903709411621094 2.8695321083068848 -9.536105155944824 1.2014955282211304 -5.264100551605225 15.073182106018066 -3.6707448959350586 8.647492408752441 -23.54656410217285 -5.5457682609558105 0.061420097947120667 0.11081226915121078 -0.07961335778236389 0.020114554092288017 -0.10998466610908508 -0.014718646183609962 -0.0448218509554863 -0.11191625893115997 -0.06403043121099472 44.20743942260742 36.25360870361328 17.858726501464844 -27.227535247802734 -27.94058609008789 64.44552612304688 -0.14906644821166992 -10.346104621887207 -1.6711560487747192 -0.07814494520425797 -0.016168732196092606 -0.10044779628515244 -0.02093696780502796 -0.0026874844916164875 -0.09467074275016785 0.0020073119085282087 0.14984583854675293 0.07342483848333359 7.873282432556152 5.5727128982543945 0.5115787982940674 -0.014205110259354115 0.0770493596792221 0.07304362952709198 2.9011614322662354 0.9831116795539856 0.11191996932029724 -0.08952770382165909 -0.005460263695567846 -0.02744818665087223 10.41971492767334 0.7620177268981934 0.10518257319927216 -0.007980660535395145 -0.09529310464859009 -0.10588563233613968 2.3538520336151123 -0.7672732472419739 -0.20290255546569824 0.007690043188631535 0.07358242571353912 -0.05176413804292679 -50.916748046875 38.51045227050781 -28.237693786621094 26.778446197509766 -26.019128799438477 -61.209564208984375 0.2980945408344269 -13.56100082397461 1.9167721271514893 0.09682575613260269 -0.02417503483593464 0.06542366743087769 0.024427495896816254 -0.04917854815721512 -0.03613556921482086 -0.0688793733716011 -0.05117746815085411 0.02113090083003044 -7.86638069152832 5.557583808898926 -0.40087878704071045 0.05197060853242874 -0.021496739238500595 0.0666612982749939 -2.8950140476226807 1.0709433555603027 -0.09496819972991943 0.14237816631793976 0.012561528943479061 0.05215810611844063 -10.43330192565918 0.7245135307312012 -0.07999322563409805 0.11128893494606018 -0.02567649446427822 -0.06872466951608658 -2.288112163543701 -0.7798968553543091 0.22363309562206268 -0.04581672325730324 -0.10158875584602356 -0.024066608399152756 -24.23624038696289 -40.18779373168945 -19.883914947509766 -1.4655615091323853 65.32825469970703 2.593222141265869 -3.5952141284942627 -10.766534805297852 -9.728957176208496 0.02789279818534851 -0.053940724581480026 0.04888062924146652 29.185930252075195 -39.78810119628906 22.02330780029297 1.4542295932769775 65.17620086669922 -2.644679307937622 4.1399688720703125 -10.74155044555664 13.691356658935547
-0.44762047473341227 58.15184712409973 0.4769478924572468 -13.977282524108887 -24.460617065429688 14.401185035705566 11.828311920166016 8.343417167663574 6.20971155166626 1.19029700756073 -7.559237003326416 1.9640028476715088 -1.451942801475525 12.593377113342285 2.7197420597076416 5.633294582366943 -21.680646896362305 7.498263359069824 0.05198852717876434 0.25670382380485535 -0.07090472429990768 0.11158467829227448 -0.14027345180511475 0.11324834823608398 0.08189414441585541 -0.10561781376600266 -0.040670063346624374 102.83566284179688 47.07289505004883 -47.30729675292969 -28.271907806396484 -40.654937744140625 84.10638427734375 -3.221208095550537 -44.91068649291992 -7.805904388427734 -0.4367453455924988 0.06017870455980301 -0.013658082112669945 0.0448894165456295 0.14541588723659515 -0.07586457580327988 0.010548846796154976 0.3638157546520233 0.0915287435054779 7.905857086181641 5.541265487670898 0.373647540807724 0.03399912640452385 0.16551391780376434 0.01139955036342144 3.222336769104004 1.1654763221740723 0.19238179922103882 -0.03848467767238617 0.1046144887804985 0.022754698991775513 10.43709945678711 0.5809369087219238 -0.0066190497018396854 0.052097219973802567 -0.2640654146671295 -0.05707274377346039 2.169689178466797 -1.0048621892929077 -0.15313975512981415 0.01974114030599594 -0.18135270476341248 0.09800156205892563 -49.8757438659668 14.899532318115234 -39.313533782958984 17.62535858154297 -9.9669771194458 -33.120365142822266 1.399320125579834 29.651161193847656 -4.847111701965332 0.02978459931910038 0.20278114080429077 0.2332758903503418 -0.1556558459997177 0.29876700043678284 0.0625261440873146 -0.3187912702560425 0.1186961978673935 0.2665208578109741 -7.782747268676758 5.211110591888428 -0.41385790705680847 -0.11000710725784302 -0.19413627684116364 0.2126900851726532 -2.7916507720947266 0.9747507572174072 0.29773804545402527 0.18116560578346252 -0.10040007531642914 0.23538640141487122 -10.37714672088623 0.800361692905426 -0.08617536723613739 0.07580816745758057 0.08539803326129913 -0.10023918747901917 -2.2503321170806885 -0.8343195915222168 0.14277082681655884 0.21199564635753632 -0.0807395726442337 0.10646062344312668 -5.9891743659973145 14.829896926879883 -2.3579773902893066 -0.2681000232696533 33.13510513305664 2.453402042388916 -12.139385223388672 -18.955669403076172 -31.660110473632812 0.07427666336297989 -0.11844633519649506 -0.023345820605754852 88.25697326660156 -54.872135162353516 78.17821502685547 3.4166173934936523 79.14358520507812 -3.3332314491271973 0.3356604278087616 -0.8656417727470398 -2.964607000350952
-0.9028959320858121 52.7215301990509 -0.4092019982635975 -18.25371742248535 -26.748497009277344 16.40838050842285 13.152983665466309 6.5271830558776855 3.6725032329559326 2.7192225456237793 -6.557875156402588 1.3411699533462524 -1.8898944854736328 11.431480407714844 1.8679183721542358 5.268882751464844 -21.01790428161621 5.694301128387451 -0.09117312729358673 0.2558867931365967 0.159546360373497 -0.0762837678194046 0.11744321882724762 -0.13808584213256836 -0.21146203577518463 -0.2128407061100006 0.1991911083459854 102.87422180175781 45.69697189331055 -52.784027099609375 -26.6646728515625 -44.307682037353516 92.07086181640625 -3.656081438064575 -48.20930480957031 -8.418057441711426 -0.008710071444511414 -0.10177605599164963 0.14656592905521393 -0.054866839200258255 -0.14994709193706512 -0.47834622859954834 -0.22569531202316284 0.08224362879991531 -0.15404511988162994 8.13961410522461 5.418532848358154 0.1936509609222412 0.24338601529598236 0.08648768067359924 -0.0362933874130249 3.115724802017212 1.1511950492858887 0.16860894858837128 -0.05009113997220993 -0.026602983474731445 0.17520388960838318 10.282073020935059 0.6677675843238831 -0.2767494022846222 -0.20019927620887756 -0.024038635194301605 -0.2113247662782669 1.898303747177124 -0.6019362807273865 -0.0898551270365715 -0.18929241597652435 -0.1915820986032486 -0.48310592770576477 -38.235652923583984 27.298032760620117 -41.444664001464844 17.419111251831055 -10.454947471618652 -32.60750198364258 1.146227478981018 26.76720428466797 -4.192183971405029 -0.15845923125743866 -0.23462578654289246 0.12254878133535385 -0.05845469608902931 0.25016123056411743 0.1248600035905838 -0.19345392286777496 0.023143723607063293 0.00726507231593132 -7.425355911254883 5.346714973449707 -0.633043110370636 0.1667487919330597 0.031110413372516632 0.10595579445362091 -2.8704705238342285 0.698643147945404 -0.26523926854133606 0.24018289148807526 0.01881757751107216 0.13975071907043457 -10.45541763305664 0.6503907442092896 -0.09029784798622131 0.1145653948187828 -0.16692198812961578 -0.009876279160380363 -2.0570006370544434 -0.5000839829444885 -0.09504896402359009 0.04166582599282265 -0.21165454387664795 -0.11204490065574646 -8.413557052612305 15.064369201660156 -2.5198123455047607 0.07798240333795547 31.215478897094727 2.505131721496582 -9.582587242126465 -17.94901466369629 -31.437274932861328 0.040283672511577606 -0.15702703595161438 0.028112083673477173 85.90592956542969 -52.43218994140625 76.50051879882812 5.969699859619141 80.5567398071289 -5.813937187194824 0.9363685250282288 -4.5341410636901855 -1.6132378578186035
